<?xml version="1.0" encoding="utf-8"?>
<!-- Generator: Adobe Illustrator 17.0.0, SVG Export Plug-In . SVG Version: 6.00 Build 0)  -->
<!DOCTYPE svg PUBLIC "-//W3C//DTD SVG 1.1//EN" "http://www.w3.org/Graphics/SVG/1.1/DTD/svg11.dtd">
<svg version="1.1" id="Capa_1" xmlns="http://www.w3.org/2000/svg" xmlns:xlink="http://www.w3.org/1999/xlink" x="0px" y="0px"
	 width="51.708px" height="36.5px" viewBox="0 0 51.708 36.5" enable-background="new 0 0 51.708 36.5" xml:space="preserve">
<g>
	<g>
		<path d="M39.167,11.329h-8.898v-2.21h8.898V11.329z M24.347,20.391c0.574,0.89,0.861,1.969,0.861,3.236
			c0,1.313-0.324,2.487-0.982,3.525c-0.418,0.688-0.938,1.268-1.563,1.736c-0.703,0.542-1.537,0.911-2.494,1.109
			c-0.959,0.199-2,0.299-3.119,0.299H7.1V8.203h10.671c2.689,0.044,4.596,0.822,5.721,2.354c0.676,0.939,1.012,2.063,1.012,3.373
			c0,1.351-0.339,2.431-1.022,3.252c-0.379,0.461-0.939,0.88-1.684,1.258C22.923,18.852,23.777,19.499,24.347,20.391L24.347,20.391z
			 M12.195,16.914h4.676c0.962,0,1.738-0.183,2.335-0.549c0.6-0.364,0.896-1.012,0.896-1.942c0-1.029-0.395-1.71-1.187-2.038
			c-0.68-0.227-1.551-0.347-2.606-0.347h-4.113V16.914z M20.552,23.312c0-1.149-0.469-1.941-1.404-2.366
			c-0.523-0.242-1.264-0.366-2.21-0.375h-4.743v5.89h4.67c0.958,0,1.701-0.125,2.237-0.388
			C20.069,25.591,20.552,24.674,20.552,23.312L20.552,23.312z M42.468,19.719c0.107,0.722,0.155,1.77,0.137,3.142H31.082
			c0.064,1.589,0.612,2.703,1.652,3.338c0.628,0.399,1.39,0.595,2.281,0.595c0.94,0,1.706-0.239,2.296-0.726
			c0.322-0.261,0.605-0.626,0.851-1.087h4.223c-0.111,0.941-0.619,1.892-1.533,2.861c-1.416,1.537-3.402,2.31-5.953,2.31
			c-2.105,0-3.962-0.651-5.574-1.947c-1.607-1.301-2.412-3.412-2.412-6.34c0-2.745,0.725-4.847,2.177-6.309
			c1.458-1.466,3.343-2.194,5.661-2.194c1.376,0,2.617,0.245,3.723,0.74c1.104,0.495,2.014,1.273,2.731,2.342
			C41.855,17.388,42.273,18.476,42.468,19.719L42.468,19.719z M38.31,20.132c-0.076-1.1-0.445-1.932-1.106-2.503
			c-0.654-0.57-1.474-0.857-2.453-0.857c-1.063,0-1.883,0.306-2.467,0.909c-0.588,0.599-0.953,1.416-1.104,2.451H38.31z
			 M38.31,20.132"/>
	</g>
</g>
</svg>
