<?xml version="1.0" encoding="utf-8"?>
<!-- Generator: Adobe Illustrator 17.0.0, SVG Export Plug-In . SVG Version: 6.00 Build 0)  -->
<!DOCTYPE svg PUBLIC "-//W3C//DTD SVG 1.1//EN" "http://www.w3.org/Graphics/SVG/1.1/DTD/svg11.dtd">
<svg version="1.1" id="Capa_1" xmlns="http://www.w3.org/2000/svg" xmlns:xlink="http://www.w3.org/1999/xlink" x="0px" y="0px"
	 width="51.708px" height="36.5px" viewBox="0 0 51.708 36.5" enable-background="new 0 0 51.708 36.5" xml:space="preserve">
<g>
	<path d="M39.802,20.062v8.503h-4.931v-7.933c0-1.993-0.712-3.353-2.496-3.353c-1.363,0-2.172,0.916-2.529,1.803
		c-0.129,0.316-0.164,0.757-0.164,1.201v8.282h-4.93c0,0,0.065-13.437,0-14.829h4.93v2.101c-0.01,0.017-0.023,0.033-0.031,0.049
		h0.031v-0.049c0.656-1.008,1.824-2.449,4.443-2.449C37.37,13.388,39.802,15.507,39.802,20.062L39.802,20.062z M19.593,6.588
		c-1.687,0-2.79,1.107-2.79,2.562c0,1.423,1.072,2.563,2.726,2.563h0.032c1.719,0,2.789-1.139,2.789-2.563
		C22.316,7.695,21.279,6.588,19.593,6.588L19.593,6.588z M17.096,28.565h4.93V13.736h-4.93V28.565z M17.096,28.565"/>
</g>
</svg>
